<?xml version="1.0" encoding="utf-8"?>
<!-- Generator: Adobe Illustrator 20.0.0, SVG Export Plug-In . SVG Version: 6.00 Build 0)  -->
<svg version="1.1" id="Layer_1" xmlns="http://www.w3.org/2000/svg" xmlns:xlink="http://www.w3.org/1999/xlink" x="0px" y="0px"
	 width="350px" height="350px" viewBox="0 0 350 350" style="enable-background:new 0 0 350 350;" xml:space="preserve">
<style type="text/css">
	.st0{fill:#595959;}
	.st1{fill:#4C4C4C;}
	.st2{fill:#FFFFFF;}
	.st3{fill:#A2E99F;}
	.st4{fill:#6ECC8E;}
	.st5{fill:#FF5079;}
	.st6{fill:#76BA4A;}
	.st7{fill:#CDE099;}
	.st8{font-family:'PTSans-Regular';}
	.st9{font-size:14.563px;}
	.st10{font-family:'PTSans-Bold';}
	.st11{font-size:19.888px;}
	.st12{font-family:'PTSans-Narrow';}
	.st13{font-size:29.125px;}
	.st14{letter-spacing:-3;}
</style>
<rect class="st0" width="350" height="193"/>
<polygon class="st1" points="350,210.5 350,96.1 207.3,52.1 205.8,56.7 173.5,46.8 167.4,66.8 149.4,61.2 125.2,139.9 144.5,145.8 
	144.1,147.1 "/>
<title>osm_banner</title>
<path class="st2" d="M228.2,79.9c0,15.9-12.9,28.8-28.8,28.8s-28.8-12.9-28.8-28.8S183.4,51,199.3,51l0,0
	C215.2,51,228.1,63.9,228.2,79.9C228.2,79.8,228.2,79.9,228.2,79.9L228.2,79.9"/>
<path class="st3" d="M123.1,45.3l8.9,23.3l-8.9,23.3l8.9,23.3l-8.9,23.3l5.5,2.1l29.6-29.6l5.3,0.8l6.4-6.4
	c-3.9-4.5-6.7-9.7-8.2-15.4l3-2.5c-3.2-14.8,3.3-29.9,16.2-37.7l-11.3-4.3l-23.3,8.9L123.1,45.3z"/>
<path class="st3" d="M222,107.1c-8.4,7-19.5,9.7-30.1,7.4l-2.5,3c-5.4-1.5-10.5-4.1-14.8-7.6l-6.7,6.7l0.8,5L144,146.4l2.4,0.9
	l23.3-8.9l23.3,8.9l23.3-8.9l8.9-23.3L222,107.1L222,107.1z"/>
<path class="st4" d="M222,107.1c-8.4,7-19.5,9.7-30.1,7.4l-2.5,3l-14.8-7.8l-6.6,6.8l0.8,5l24.2,3.6l-0.1,22.1l23.3-8.9l8.9-23.3
	L222,107.1z"/>
<path class="st5" d="M191.5,67.9c-4.9,0-8.1,4.9-8.1,9.8c0,7.4,8.1,14.7,15.4,19.6c7.4-4.9,15.4-12.2,15.4-19.6
	c0-4.9-3.2-9.8-8.1-9.8s-7.4,3.3-7.4,7.4C198.9,71.1,196.4,67.9,191.5,67.9z"/>
<rect y="192.2" class="st6" width="350" height="51.7"/>
<rect y="243.9" class="st7" width="350" height="105.6"/>
<g>
	<rect y="264.6" class="st5" width="10.2" height="2.2"/>
	<rect y="285.3" class="st0" width="10.2" height="2.2"/>
	<rect y="306" class="st0" width="10.2" height="2.2"/>
	<rect y="326.6" class="st0" width="10.2" height="2.2"/>
</g>
<g>
	<rect x="339.8" y="264.6" class="st5" width="10.2" height="2.2"/>
	<rect x="339.8" y="285.3" class="st0" width="10.2" height="2.2"/>
	<rect x="339.8" y="306" class="st0" width="10.2" height="2.2"/>
	<rect x="339.8" y="326.6" class="st0" width="10.2" height="2.2"/>
</g>
<text transform="matrix(1 0 0 1 70.895 323.367)" class="st0 st8 st9">Suppo</text>
<text transform="matrix(1 0 0 1 110.038 323.367)" class="st0 st8 st9">r</text>
<text transform="matrix(1 0 0 1 115.426 323.367)" class="st0 st8 st9">t a gr</text>
<text transform="matrix(1 0 0 1 148.133 323.367)" class="st0 st8 st9">o</text>
<text transform="matrix(1 0 0 1 155.778 323.367)" class="st0 st8 st9">wing OpeStr</text>
<text transform="matrix(1 0 0 1 232.915 323.367)" class="st0 st8 st9">e</text>
<text transform="matrix(1 0 0 1 240.152 323.367)" class="st0 st8 st9">etMap</text>
<g>
	<text transform="matrix(1 0 0 1 20.892 227.822)" class="st2 st10 st11">OpenStr</text>
	<text transform="matrix(1 0 0 1 90.362 227.822)" class="st2 st10 st11">e</text>
	<text transform="matrix(1 0 0 1 100.366 227.822)" class="st2 st10 st11">etMap Funding Dri</text>
	<text transform="matrix(1 0 0 1 258.397 227.822)" class="st2 st10 st11">v</text>
	<text transform="matrix(1 0 0 1 267.745 227.822)" class="st2 st10 st11">e</text>
	<text transform="matrix(1 0 0 1 278.97 227.822)" class="st1 st10 st11"> 2016</text>
</g>
<text transform="matrix(1 0 0 1 101.738 293.482)" class="st12 st13">Dona</text>
<text transform="matrix(1 0 0 1 154.046 293.482)" class="st12 st13">t</text>
<text transform="matrix(1 0 0 1 161.822 293.482)" class="st12 st13">e</text>
<text transform="matrix(1 0 0 1 173.85 293.482)" class="st12 st13"> </text>
<text transform="matrix(1 0 0 1 179.268 293.482)" class="st12 st13 st14">T</text>
<text transform="matrix(1 0 0 1 189.287 293.482)" class="st12 st13">oday!</text>
</svg>
