<?xml version="1.0" encoding="UTF-8" standalone="no"?>
<svg
   xmlns:dc="http://purl.org/dc/elements/1.1/"
   xmlns:cc="http://creativecommons.org/ns#"
   xmlns:rdf="http://www.w3.org/1999/02/22-rdf-syntax-ns#"
   xmlns:svg="http://www.w3.org/2000/svg"
   xmlns="http://www.w3.org/2000/svg"
   xml:space="preserve"
   viewBox="0 0 350 349.5"
   height="349.5"
   width="350"
   y="0px"
   x="0px"
   id="Layer_1"
   version="1.1"><metadata
   id="metadata222"><rdf:RDF><cc:Work
       rdf:about=""><dc:format>image/svg+xml</dc:format><dc:type
         rdf:resource="http://purl.org/dc/dcmitype/StillImage" /><dc:title>osm_banner</dc:title></cc:Work></rdf:RDF></metadata><defs
   id="defs220" />
<style
   id="style135"
   type="text/css">
	.st0{fill:#595959;}
	.st1{fill:#4C4C4C;}
	.st2{fill:#FFFFFF;}
	.st3{fill:#A2E99F;}
	.st4{fill:#6ECC8E;}
	.st5{fill:#FF5079;}
	.st6{fill:#76BA4A;}
	.st7{fill:#CDE099;}
	.st8{font-family:'PTSans-Regular';}
	.st9{font-size:14.563px;}
	.st10{font-family:'PTSans-Bold';}
	.st11{font-size:19.888px;}
	.st12{font-family:'PTSans-Narrow';}
	.st13{font-size:29.125px;}
	.st14{letter-spacing:-3;}
</style>
<rect
   y="0"
   x="0"
   id="rect137"
   height="193"
   width="350"
   class="st0" />
<polygon
   id="polygon139"
   points="207.3,52.1 205.8,56.7 173.5,46.8 167.4,66.8 149.4,61.2 125.2,139.9 144.5,145.8 144.1,147.1 350,210.5 350,96.1 "
   class="st1" />
<title
   id="title141">osm_banner</title>
<path
   id="path143"
   d="m 228.2,79.9 c 0,15.9 -12.9,28.8 -28.8,28.8 -15.9,0 -28.8,-12.9 -28.8,-28.8 C 170.6,64 183.4,51 199.3,51 v 0 c 15.9,0 28.8,12.9 28.9,28.9 0,-0.1 0,0 0,0 v 0"
   class="st2" />
<path
   id="path145"
   d="m 123.1,45.3 8.9,23.3 -8.9,23.3 8.9,23.3 -8.9,23.3 5.5,2.1 29.6,-29.6 5.3,0.8 6.4,-6.4 C 166,100.9 163.2,95.7 161.7,90 l 3,-2.5 C 161.5,72.7 168,57.6 180.9,49.8 l -11.3,-4.3 -23.3,8.9 z"
   class="st3" />
<path
   id="path147"
   d="m 222,107.1 c -8.4,7 -19.5,9.7 -30.1,7.4 l -2.5,3 c -5.4,-1.5 -10.5,-4.1 -14.8,-7.6 l -6.7,6.7 0.8,5 -24.7,24.8 2.4,0.9 23.3,-8.9 23.3,8.9 23.3,-8.9 8.9,-23.3 z"
   class="st3" />
<path
   id="path149"
   d="m 222,107.1 c -8.4,7 -19.5,9.7 -30.1,7.4 l -2.5,3 -14.8,-7.8 -6.6,6.8 0.8,5 24.2,3.6 -0.1,22.1 23.3,-8.9 8.9,-23.3 z"
   class="st4" />
<path
   id="path151"
   d="m 191.5,67.9 c -4.9,0 -8.1,4.9 -8.1,9.8 0,7.4 8.1,14.7 15.4,19.6 7.4,-4.9 15.4,-12.2 15.4,-19.6 0,-4.9 -3.2,-9.8 -8.1,-9.8 -4.9,0 -7.4,3.3 -7.4,7.4 0.2,-4.2 -2.3,-7.4 -7.2,-7.4 z"
   class="st5" />
<rect
   x="0"
   id="rect153"
   height="51.700001"
   width="350"
   class="st6"
   y="192.2" />
<rect
   x="0"
   id="rect155"
   height="105.6"
   width="350"
   class="st7"
   y="243.89999" />
<g
   id="g165">
	<rect
   x="0"
   id="rect157"
   height="2.2"
   width="10.2"
   class="st5"
   y="264.60001" />
	<rect
   x="0"
   id="rect159"
   height="2.2"
   width="10.2"
   class="st0"
   y="285.29999" />
	<rect
   x="0"
   id="rect161"
   height="2.2"
   width="10.2"
   class="st0"
   y="306" />
	<rect
   x="0"
   id="rect163"
   height="2.2"
   width="10.2"
   class="st0"
   y="326.60001" />
</g>
<g
   id="g175">
	<rect
   id="rect167"
   height="2.2"
   width="10.2"
   class="st5"
   y="264.60001"
   x="339.79999" />
	<rect
   id="rect169"
   height="2.2"
   width="10.2"
   class="st0"
   y="285.29999"
   x="339.79999" />
	<rect
   id="rect171"
   height="2.2"
   width="10.2"
   class="st0"
   y="306"
   x="339.79999" />
	<rect
   id="rect173"
   height="2.2"
   width="10.2"
   class="st0"
   y="326.60001"
   x="339.79999" />
</g>
<text
   y="323.367"
   x="66.928291"
   id="text177"
   class="st0 st8 st9"><tspan
     style="font-style:normal;font-variant:normal;font-weight:bold;font-stretch:normal;font-family:'PT Sans';-inkscape-font-specification:'PT Sans'"
     id="tspan64">Support a growing OpenStreetMap</tspan></text>






<g
   transform="translate(21.586239)"
   id="g262"><g
     id="g203">
	<text
   y="227.82201"
   x="24.90774"
   class="st2 st10 st11"
   id="text191"><tspan
     style="font-style:normal;font-variant:normal;font-weight:bold;font-stretch:normal;font-family:'PT Sans';-inkscape-font-specification:'PT Sans'"
     id="tspan60">OpenStreetMap Funding Drive</tspan></text>
	
	
	
	
	
</g></g>
<text
   y="294.21695"
   x="103.65849"
   id="text205"
   class="st12 st13"><tspan
     style="font-style:normal;font-variant:normal;font-weight:normal;font-stretch:normal;font-family:'PT Sans Narrow';-inkscape-font-specification:'PT Sans Narrow'"
     id="tspan62">Donate Today!</tspan></text>





</svg>
