<?xml version="1.0" encoding="UTF-8" standalone="no"?>
<svg
   xmlns:dc="http://purl.org/dc/elements/1.1/"
   xmlns:cc="http://creativecommons.org/ns#"
   xmlns:rdf="http://www.w3.org/1999/02/22-rdf-syntax-ns#"
   xmlns:svg="http://www.w3.org/2000/svg"
   xmlns="http://www.w3.org/2000/svg"
   version="1.1"
   id="Layer_1"
   x="0px"
   y="0px"
   width="640px"
   height="480px"
   viewBox="0 0 640 480"
   style="enable-background:new 0 0 640 480;"
   xml:space="preserve"><metadata
   id="metadata430"><rdf:RDF><cc:Work
       rdf:about=""><dc:format>image/svg+xml</dc:format><dc:type
         rdf:resource="http://purl.org/dc/dcmitype/StillImage" /><dc:title>twitter</dc:title></cc:Work></rdf:RDF></metadata><defs
   id="defs428" />
<style
   type="text/css"
   id="style375">
	.st0{fill:#595959;}
	.st1{fill:#4C4C4C;}
	.st2{fill:#FFFFFF;}
	.st3{fill:#A2E99F;}
	.st4{fill:#6ECC8E;}
	.st5{fill:#FF5079;}
	.st6{fill:#76BA4A;}
	.st7{fill:#CDE099;}
	.st8{font-family:'PTSans-Regular';}
	.st9{font-size:20px;}
	.st10{font-family:'PTSans-Bold';}
	.st11{font-size:30px;}
	.st12{font-family:'PTSans-Narrow';}
	.st13{font-size:40px;}
</style>
<title
   id="title377">twitter</title>
<rect
   class="st0"
   width="640"
   height="265"
   id="rect379" />
<polygon
   class="st1"
   points="640,156.5 364.3,71.6 362.3,77.9 317.9,64.3 309.5,91.7 284.8,84.1 251.6,192.1 278.1,200.3 277.6,202   632.7,311.4 640,287.8 "
   id="polygon381" />
<path
   class="st2"
   d="M393,109.7c0,21.9-17.7,39.6-39.6,39.6c-21.9,0-39.6-17.7-39.6-39.6c0-21.9,17.7-39.6,39.6-39.6  C375.3,70.2,393,87.9,393,109.7C393,109.7,393,109.7,393,109.7"
   id="path383" />
<path
   class="st3"
   d="M248.7,62.2l12.2,32l-12.2,32l12.2,32l-12.2,32l7.5,2.9l40.6-40.6l7.3,1.1l8.8-8.8c-5.3-6.1-9.2-13.4-11.3-21.2  l4.1-3.4c-4.4-20.3,4.6-41.1,22.3-51.8l-15.5-5.9l-32,12.2L248.7,62.2z"
   id="path385" />
<path
   class="st3"
   d="M384.6,147.1c-11.5,9.6-26.8,13.4-41.4,10.2l-3.4,4.1c-7.4-2-14.4-5.6-20.3-10.5l-9.2,9.2l1.1,6.8l-34,34.1  l3.3,1.3l32-12.2l32,12.2l32-12.2l12.2-32L384.6,147.1L384.6,147.1z"
   id="path387" />
<path
   class="st4"
   d="M384.6,147.1c-11.5,9.6-26.8,13.4-41.4,10.2l-3.4,4.1l-20.3-10.7l-9.1,9.4l1.1,6.8l33.2,5l-0.1,30.3l32-12.2  l12.2-32L384.6,147.1z"
   id="path389" />
<path
   class="st5"
   d="M342.7,93.2c-6.7,0-11.1,6.7-11.1,13.5c0,10.1,11.1,20.2,21.2,26.9c10.1-6.7,21.2-16.8,21.2-26.9  c0-6.7-4.4-13.5-11.1-13.5s-10.1,4.5-10.1,10.1C352.8,97.7,349.4,93.2,342.7,93.2z"
   id="path391" />
<rect
   y="264"
   class="st6"
   width="640"
   height="71"
   id="rect393" />
<rect
   y="335"
   class="st7"
   width="640"
   height="145"
   id="rect395" />
<g
   id="g405">
	<rect
   y="363.4"
   class="st5"
   width="14"
   height="3"
   id="rect397" />
	<rect
   y="391.8"
   class="st0"
   width="14"
   height="3"
   id="rect399" />
	<rect
   y="420.2"
   class="st0"
   width="14"
   height="3"
   id="rect401" />
	<rect
   y="448.6"
   class="st0"
   width="14"
   height="3"
   id="rect403" />
</g>
<g
   id="g415">
	<rect
   x="626"
   y="363.4"
   class="st5"
   width="14"
   height="3"
   id="rect407" />
	<rect
   x="626"
   y="391.8"
   class="st0"
   width="14"
   height="3"
   id="rect409" />
	<rect
   x="626"
   y="420.2"
   class="st0"
   width="14"
   height="3"
   id="rect411" />
	<rect
   x="626"
   y="448.6"
   class="st0"
   width="14"
   height="3"
   id="rect413" />
</g>
<g
   transform="translate(40.467872,0.75821191)"
   id="g37"><g
     id="g33"><g
       style="stroke-width:1.20876"
       transform="matrix(0.82729226,0,0,0.82729226,55.266477,75.050278)"
       id="g40"><text
         style="stroke-width:1.20876"
         y="440.06833"
         x="-3.7353516"
         id="text417"
         class="st0 st8 st9"><tspan
           style="font-style:normal;font-variant:normal;font-weight:bold;font-stretch:normal;font-family:'PT Sans';-inkscape-font-specification:'PT Sans'"
           id="tspan37">Support a growing OpenStreetMap at donate.openstreetmap.org</tspan></text></g></g></g>
<text
   class="st2 st10 st11"
   id="text419"
   x="126.15545"
   y="312.15521"><tspan
     style="font-style:normal;font-variant:normal;font-weight:bold;font-stretch:normal;font-family:'PT Sans';-inkscape-font-specification:'PT Sans'"
     id="tspan33">OpenStreetMap Funding Drive</tspan></text>

<text
   class="st12 st13"
   id="text423"
   x="198.42032"
   y="403.065"><tspan
     style="font-style:normal;font-variant:normal;font-weight:normal;font-stretch:normal;font-family:'PT Sans';-inkscape-font-specification:'PT Sans'"
     id="tspan35">Donate Today!</tspan></text>
</svg>
