<?xml version="1.0" encoding="utf-8"?>
<!-- Generator: Adobe Illustrator 20.0.0, SVG Export Plug-In . SVG Version: 6.00 Build 0)  -->
<svg version="1.1" id="Layer_1" xmlns="http://www.w3.org/2000/svg" xmlns:xlink="http://www.w3.org/1999/xlink" x="0px" y="0px"
	 width="300px" height="300px" viewBox="0 0 300 300" style="enable-background:new 0 0 300 300;" xml:space="preserve">
<style type="text/css">
	.st0{opacity:6.000000e-02;}
	.st1{fill:#1A1A1A;}
</style>
<title>bg</title>
<g class="st0">
	<path class="st1" d="M16.9,162.3l9.9,26l-9.9,26l9.9,26l-9.9,26l6.1,2.3l33.1-33.1l5.9,0.9l7.2-7.2c-4.3-5-7.5-10.9-9.2-17.3
		l3.4-2.8c-3.6-16.5,3.7-33.4,18.1-42.2L69,162.3l-26,9.9L16.9,162.3z"/>
	<path class="st1" d="M127.5,231.5L127.5,231.5c-9.3,7.8-21.8,10.9-33.7,8.3l-2.8,3.4l-16.6-8.7l-7.4,7.7l0.9,5.5l0,0l-27.7,27.7
		l2.7,1l26-9.9l26,9.9l0,0l26-9.9l9.9-26L127.5,231.5z"/>
	<path class="st1" d="M102.2,168.8c-17.8,0-32.2,14.4-32.2,32.2c0,17.8,14.4,32.2,32.2,32.2c17.8,0,32.2-14.4,32.2-32.2
		C134.4,183.2,120,168.8,102.2,168.8C102.2,168.8,102.2,168.8,102.2,168.8z M101.6,220.4c-8.2-5.5-17.3-13.7-17.3-21.9
		c0-5.5,3.6-11,9-11c4.2-0.3,7.9,2.9,8.2,7.1c0,0.4,0,0.7,0,1.1c-0.3-4.2,2.9-7.9,7.1-8.2c0.4,0,0.7,0,1.1,0c5.5,0,9,5.5,9,11
		C118.9,206.7,109.8,214.9,101.6,220.4L101.6,220.4z"/>
</g>
<g class="st0">
	<path class="st1" d="M170,25.1l9.9,26l-9.9,26l9.9,26l-9.9,26l6.1,2.3l33.1-33.1l5.9,0.9l7.2-7.2c-4.3-5-7.5-10.9-9.2-17.3l3.4-2.8
		c-3.6-16.5,3.7-33.4,18.1-42.2L222,25.1L196,35L170,25.1z"/>
	<path class="st1" d="M280.6,94.2L280.6,94.2c-9.3,7.8-21.8,10.9-33.7,8.3l-2.8,3.4l-16.6-8.7l-7.4,7.7l0.9,5.5l0,0L193.3,138l2.7,1
		l26-9.9l26,9.9l0,0l26-9.9l9.9-26L280.6,94.2z"/>
	<path class="st1" d="M255.2,31.5c-17.8,0-32.2,14.4-32.2,32.2c0,17.8,14.4,32.2,32.2,32.2c17.8,0,32.2-14.4,32.2-32.2
		C287.5,45.9,273,31.5,255.2,31.5C255.2,31.5,255.2,31.5,255.2,31.5z M254.7,83.1c-8.2-5.5-17.3-13.7-17.3-21.9c0-5.5,3.6-11,9-11
		c4.2-0.3,7.9,2.9,8.2,7.1c0,0.4,0,0.7,0,1.1c-0.3-4.2,2.9-7.9,7.1-8.2c0.4,0,0.7,0,1.1,0c5.5,0,9,5.5,9,11
		C272,69.4,262.9,77.7,254.7,83.1z"/>
</g>
</svg>
