<svg xmlns="http://www.w3.org/2000/svg" xmlns:xlink="http://www.w3.org/1999/xlink" width="1800.739" height="958.168" viewBox="0 0 1800.739 958.168">
  <defs>
    <linearGradient id="a" x1="662.011" y1="434.019" x2="739.712" y2="434.019" gradientUnits="userSpaceOnUse">
      <stop offset="0" stop-color="#b7e3a0"/>
      <stop offset="1" stop-color="#9ed481"/>
    </linearGradient>
    <linearGradient id="b" x1="739.712" y1="405.667" x2="984.184" y2="405.667" gradientUnits="userSpaceOnUse">
      <stop offset="0" stop-color="#9c9"/>
      <stop offset="1" stop-color="#b7e3a0"/>
    </linearGradient>
    <linearGradient id="c" x1="724.55" y1="495.213" x2="821.202" y2="495.213" xlink:href="#b"/>
    <linearGradient id="d" x1="821.202" y1="563.703" x2="975.353" y2="563.703" xlink:href="#a"/>
    <linearGradient id="e" x1="856.907" y1="645.668" x2="995.555" y2="645.668" xlink:href="#a"/>
    <linearGradient id="f" x1="896.781" y1="730.911" x2="995.555" y2="730.911" xlink:href="#b"/>
    <linearGradient id="g" x1="911.184" y1="454.05" x2="1039.143" y2="454.05" xlink:href="#b"/>
    <linearGradient id="h" x1="975.353" y1="543.937" x2="1039.143" y2="543.937" xlink:href="#a"/>
    <linearGradient id="i" x1="975.353" y1="601.227" x2="1025.877" y2="601.227" xlink:href="#b"/>
    <linearGradient id="j" x1="1025.877" y1="543.937" x2="1106.724" y2="543.937" xlink:href="#a"/>
    <linearGradient id="k" x1="940.596" y1="407.487" x2="1139.586" y2="407.487" gradientUnits="userSpaceOnUse">
      <stop offset="0" stop-color="#9ed481"/>
      <stop offset="1" stop-color="#6ecc8e"/>
    </linearGradient>
    <linearGradient id="l" x1="881.847" y1="305.396" x2="955.189" y2="305.396" xlink:href="#k"/>
    <linearGradient id="m" x1="813.167" y1="236.924" x2="881.847" y2="236.924" gradientUnits="userSpaceOnUse">
      <stop offset="0" stop-color="#d7f1bb"/>
      <stop offset="1" stop-color="#c9eaa5"/>
    </linearGradient>
    <linearGradient id="n" x1="813.167" y1="261.485" x2="881.847" y2="261.485" xlink:href="#a"/>
    <linearGradient id="o" x1="724.55" y1="261.504" x2="823.969" y2="261.504" xlink:href="#a"/>
    <linearGradient id="p" x1="724.55" y1="299.464" x2="823.969" y2="299.464" xlink:href="#a"/>
    <linearGradient id="q" x1="809.832" y1="144.063" x2="904.589" y2="144.063" xlink:href="#b"/>
    <linearGradient id="r" x1="857.21" y1="154.486" x2="1037.248" y2="154.486" xlink:href="#a"/>
    <linearGradient id="s" x1="1051.158" y1="330.734" x2="1177.488" y2="330.734" xlink:href="#m"/>
    <linearGradient id="t" x1="1177.488" y1="419.483" x2="1321.519" y2="419.483" xlink:href="#k"/>
    <linearGradient id="u" x1="1321.519" y1="435.914" x2="1416.276" y2="435.914" xlink:href="#a"/>
    <linearGradient id="v" x1="1416.276" y1="465.288" x2="1446.598" y2="465.288" xlink:href="#a"/>
    <linearGradient id="w" x1="1427.647" y1="372.427" x2="1497.767" y2="372.427" xlink:href="#a"/>
    <linearGradient id="x" x1="1452.928" y1="273.879" x2="1529.984" y2="273.879" xlink:href="#a"/>
    <linearGradient id="y" x1="1037.248" y1="174.385" x2="1645.588" y2="174.385" xlink:href="#m"/>
    <linearGradient id="z" x1="764.348" y1="202.812" x2="787.09" y2="202.812" xlink:href="#a"/>
    <linearGradient id="aa" x1="735.921" y1="208.497" x2="754.873" y2="208.497" xlink:href="#a"/>
    <linearGradient id="ab" x1="1037.248" y1="688.915" x2="1080.836" y2="688.915" xlink:href="#a"/>
    <linearGradient id="ac" x1="1377.804" y1="531.921" x2="1420.066" y2="531.921" xlink:href="#a"/>
    <linearGradient id="ad" x1="1550.831" y1="314.625" x2="1586.838" y2="314.625" xlink:href="#b"/>
    <linearGradient id="ae" x1="1497.767" y1="557.203" x2="1543.25" y2="557.203" xlink:href="#b"/>
    <linearGradient id="af" x1="1444.703" y1="557.203" x2="1497.767" y2="557.203" xlink:href="#a"/>
    <linearGradient id="ag" x1="1617.161" y1="597.001" x2="1687.281" y2="597.001" xlink:href="#a"/>
    <linearGradient id="ah" x1="1509.138" y1="479.502" x2="1543.25" y2="479.502" xlink:href="#m"/>
    <linearGradient id="ai" x1="1539.46" y1="734.398" x2="1660.749" y2="734.398" xlink:href="#m"/>
    <linearGradient id="aj" x1="1420.066" y1="734.398" x2="1577.363" y2="734.398" xlink:href="#b"/>
    <linearGradient id="ak" x1="1660.749" y1="864.215" x2="1719.498" y2="864.215" xlink:href="#m"/>
    <linearGradient id="al" x1="1732.764" y1="820.627" x2="1761.191" y2="820.627" xlink:href="#a"/>
    <linearGradient id="am" x1="1431.437" y1="612.162" x2="1488.291" y2="612.162" xlink:href="#b"/>
    <linearGradient id="an" x1="288.669" y1="533.513" x2="365.839" y2="533.513" xlink:href="#a"/>
    <linearGradient id="ao" x1="364.079" y1="551.405" x2="457.32" y2="551.405" xlink:href="#a"/>
    <linearGradient id="ap" x1="417.522" y1="799.289" x2="470.283" y2="799.289" xlink:href="#a"/>
    <linearGradient id="aq" x1="365.823" y1="670.155" x2="567.238" y2="670.155" xlink:href="#k"/>
    <linearGradient id="ar" x1="288.669" y1="660.62" x2="380.014" y2="660.62" xlink:href="#a"/>
    <linearGradient id="as" x1="352.102" y1="799.289" x2="439.619" y2="799.289" xlink:href="#a"/>
    <linearGradient id="at" x1="30.93" y1="163.961" x2="502.819" y2="163.961" xlink:href="#k"/>
    <linearGradient id="au" x1="76.413" y1="415.067" x2="324.676" y2="415.067" xlink:href="#a"/>
    <linearGradient id="av" x1="305.725" y1="252.483" x2="502.819" y2="252.483" xlink:href="#a"/>
    <linearGradient id="aw" x1="76.413" y1="293.153" x2="391.764" y2="293.153" xlink:href="#m"/>
    <linearGradient id="ax" x1="527.456" y1="102.369" x2="745.397" y2="102.369" xlink:href="#a"/>
    <linearGradient id="ay" x1="688.543" y1="139.325" x2="730.236" y2="139.325" xlink:href="#m"/>
    <linearGradient id="az" x1="1539.46" y1="692.231" x2="1660.749" y2="692.231" xlink:href="#a"/>
    <linearGradient id="ba" x1="1240.672" y1="247.025" x2="1452.928" y2="247.025" xlink:href="#a"/>
    <linearGradient id="bb" x1="1170.277" y1="330.734" x2="1243.174" y2="330.734" xlink:href="#a"/>
    <linearGradient id="bc" x1="1243.174" y1="375.895" x2="1346.8" y2="375.895" xlink:href="#a"/>
    <linearGradient id="bd" x1="1346.8" y1="435.914" x2="1427.647" y2="435.914" xlink:href="#b"/>
    <linearGradient id="be" x1="1051.158" y1="234.082" x2="1240.672" y2="234.082" xlink:href="#k"/>
    <linearGradient id="bf" x1="821.202" y1="504.347" x2="975.353" y2="504.347" xlink:href="#a"/>
    <linearGradient id="bg" x1="724.55" y1="434.019" x2="792.359" y2="434.019" xlink:href="#m"/>
    <linearGradient id="bh" x1="792.359" y1="467.184" x2="911.184" y2="467.184" xlink:href="#k"/>
    <linearGradient id="bi" x1="856.907" y1="601.227" x2="995.555" y2="601.227" xlink:href="#k"/>
    <linearGradient id="bj" x1="940.596" y1="316.52" x2="1067.57" y2="316.52" xlink:href="#a"/>
    <linearGradient id="bk" x1="1051.158" y1="330.734" x2="1177.488" y2="330.734" xlink:href="#a"/>
    <linearGradient id="bl" x1="881.847" y1="256.501" x2="955.189" y2="256.501" xlink:href="#a"/>
    <linearGradient id="bm" x1="857.21" y1="226.179" x2="926.231" y2="226.179" xlink:href="#b"/>
    <linearGradient id="bn" x1="926.231" y1="209.748" x2="952.611" y2="209.748" xlink:href="#a"/>
    <linearGradient id="bo" x1="940.596" y1="303.254" x2="1051.158" y2="303.254" xlink:href="#a"/>
    <linearGradient id="bp" x1="288.653" y1="609.435" x2="381.514" y2="609.435" xlink:href="#b"/>
    <linearGradient id="bq" x1="324.676" y1="524.928" x2="404.045" y2="524.928" xlink:href="#k"/>
    <linearGradient id="br" x1="350.586" y1="694.943" x2="439.619" y2="694.943" xlink:href="#k"/>
    <linearGradient id="bs" x1="348.669" y1="742.433" x2="352.118" y2="742.433" xlink:href="#a"/>
    <linearGradient id="bt" x1="293.103" y1="371.858" x2="312.168" y2="371.858" xlink:href="#b"/>
    <linearGradient id="bu" x1="277.942" y1="426.438" x2="353.748" y2="426.438" xlink:href="#a"/>
    <linearGradient id="bv" x1="267.822" y1="157.328" x2="502.819" y2="157.328" xlink:href="#b"/>
    <linearGradient id="bw" x1="1170.277" y1="288.093" x2="1243.174" y2="288.093" xlink:href="#b"/>
    <linearGradient id="bx" x1="1240.672" y1="326.943" x2="1465.549" y2="326.943" xlink:href="#b"/>
    <linearGradient id="by" x1="926.231" y1="254.852" x2="1051.158" y2="254.852" xlink:href="#k"/>
    <linearGradient id="bz" x1="926.231" y1="234.082" x2="1051.158" y2="234.082" xlink:href="#m"/>
    <linearGradient id="ca" x1="926.231" y1="164.909" x2="1037.248" y2="164.909" xlink:href="#b"/>
    <linearGradient id="cb" x1="952.611" y1="196.179" x2="1126.964" y2="196.179" xlink:href="#b"/>
  </defs>
  <title>bg</title>
  <rect width="1800.739" height="958.168" fill="#6ecc8e"/>
  <g>
    <polygon points="739.712 335.471 724.55 532.566 662.011 398.011 739.712 335.471" fill="url(#a)"/>
    <polygon points="984.184 375.269 917.21 472.566 911.184 475.863 836.364 409.382 792.359 457.859 739.712 335.471 940.596 341.157 984.184 375.269" fill="url(#b)"/>
    <polygon points="821.202 524.985 724.55 532.566 792.359 457.859 821.202 524.985" fill="url(#c)"/>
    <polygon points="975.353 532.831 856.907 602.42 821.202 524.985 975.353 532.831" fill="url(#d)"/>
    <polygon points="995.555 669.622 896.781 688.915 856.907 602.42 995.555 669.622" fill="url(#e)"/>
    <polygon points="995.555 669.622 944.386 792.2 896.781 688.915 995.555 669.622" fill="url(#f)"/>
    <polygon points="1039.143 490.873 975.353 532.831 911.184 475.863 917.21 472.566 984.184 375.269 1039.143 490.873" fill="url(#g)"/>
    <polygon points="1039.143 490.873 1025.877 597.001 975.353 532.831 1039.143 490.873" fill="url(#h)"/>
    <polygon points="975.353 532.831 1025.877 597.001 995.555 669.622 975.353 532.831" fill="url(#i)"/>
    <polygon points="1106.724 495.307 1025.877 597.001 1039.143 490.873 1106.724 495.307" fill="url(#j)"/>
    <polygon points="1139.586 416.962 1058.095 473.817 984.184 375.269 940.596 341.157 1067.57 367.689 1139.586 416.962" fill="url(#k)"/>
    <polygon points="955.189 269.634 940.596 341.157 881.847 272.932 955.189 269.634" fill="url(#l)"/>
    <polygon points="881.847 272.932 813.167 226.69 857.21 200.917 881.847 272.932" fill="url(#m)"/>
    <polygon points="881.847 272.932 823.969 296.28 813.167 226.728 813.167 226.69 881.847 272.932" fill="url(#n)"/>
    <polygon points="823.969 296.28 724.55 278.617 813.167 226.728 823.969 296.28" fill="url(#o)"/>
    <polygon points="823.969 296.28 764.348 320.31 724.55 278.617 823.969 296.28" fill="url(#p)"/>
    <polygon points="904.589 138.377 842.049 180.07 809.832 155.433 902.693 108.055 904.589 138.377" fill="url(#q)"/>
    <polygon points="1037.248 127.006 926.231 179.426 857.21 200.917 904.589 138.377 902.693 108.055 1037.248 127.006" fill="url(#r)"/>
    <polygon points="1177.488 396.116 1067.57 367.689 1051.158 265.351 1177.488 396.116" fill="url(#s)"/>
    <polygon points="1321.519 413.172 1253.294 500.348 1177.488 396.116 1243.174 338.617 1321.519 413.172" fill="url(#t)"/>
    <polygon points="1416.276 500.348 1377.804 464.947 1321.519 413.172 1346.8 371.479 1416.276 500.348" fill="url(#u)"/>
    <polygon points="1446.598 483.292 1416.276 500.348 1427.647 430.228 1446.598 483.292" fill="url(#v)"/>
    <polygon points="1497.767 362.003 1490.186 409.382 1427.647 430.228 1465.549 314.625 1497.767 362.003" fill="url(#w)"/>
    <polygon points="1529.984 324.101 1465.549 314.625 1452.928 223.658 1516.718 282.408 1529.984 324.101" fill="url(#x)"/>
    <polygon points="1537.565 168.699 1492.081 200.917 1543.25 223.658 1516.718 282.408 1452.928 223.658 1240.672 237.569 1126.964 202.812 1037.248 127.006 1192.65 66.362 1425.752 98.579 1645.588 127.006 1617.161 223.658 1537.565 168.699" fill="url(#y)"/>
    <polygon points="787.09 217.973 764.348 223.658 770.034 181.965 787.09 217.973" fill="url(#z)"/>
    <polygon points="754.873 199.022 751.082 217.973 735.921 208.497 754.873 199.022" fill="url(#aa)"/>
    <polygon points="1080.836 646.274 1063.78 731.555 1037.248 716.394 1080.836 646.274" fill="url(#ab)"/>
    <polygon points="1420.066 598.896 1380.268 543.937 1377.804 464.947 1420.066 598.896" fill="url(#ac)"/>
    <polygon points="1586.838 331.681 1550.831 363.899 1575.467 265.351 1586.838 331.681" fill="url(#ad)"/>
    <polygon points="1543.25 557.203 1497.767 595.105 1497.767 519.3 1543.25 557.203" fill="url(#ae)"/>
    <polygon points="1497.767 519.3 1497.767 595.105 1444.703 562.888 1497.767 519.3" fill="url(#af)"/>
    <polygon points="1617.161 572.364 1687.281 621.637 1620.951 615.952 1617.161 572.364" fill="url(#ag)"/>
    <polygon points="1543.25 473.817 1535.67 513.614 1509.138 445.389 1543.25 473.817" fill="url(#ah)"/>
    <polygon points="1660.749 734.398 1577.363 813.046 1539.46 655.75 1660.749 734.398" fill="url(#ai)"/>
    <polygon points="1577.363 813.046 1420.066 805.466 1420.066 723.975 1539.46 655.75 1577.363 813.046" fill="url(#aj)"/>
    <polygon points="1719.498 845.264 1681.595 883.166 1660.749 866.11 1719.498 845.264" fill="url(#ak)"/>
    <polygon points="1761.191 816.837 1732.764 841.473 1746.977 799.78 1761.191 816.837" fill="url(#al)"/>
    <polygon points="1488.291 625.428 1431.437 612.162 1437.122 598.896 1488.291 625.428" fill="url(#am)"/>
    <polygon points="365.839 572.288 288.669 581.839 324.676 485.187 364.095 564.669 365.839 572.288" fill="url(#an)"/>
    <polygon points="457.32 560.976 365.823 572.271 364.079 564.652 404.029 530.54 457.32 560.976" fill="url(#ao)"/>
    <polygon points="470.283 779.334 417.522 909.681 439.619 688.898 470.283 779.334" fill="url(#ap)"/>
    <polygon points="567.238 598.879 470.283 779.334 439.619 688.898 379.998 646.599 381.514 641.823 365.823 572.271 457.32 560.976 567.238 598.879" fill="url(#aq)"/>
    <polygon points="380.014 646.615 350.602 739.401 288.669 581.839 380.014 646.615" fill="url(#ar)"/>
    <polygon points="439.619 688.898 417.522 909.681 352.102 743.288 439.619 688.898" fill="url(#as)"/>
    <polygon points="502.819 214.183 305.725 227.449 136.413 227.449 30.93 123.216 267.822 100.474 502.819 214.183" fill="url(#at)"/>
    <polygon points="324.676 485.187 277.298 509.824 163.59 451.075 76.413 320.31 217.298 356.318 199.597 413.172 281.088 494.663 324.676 485.187" fill="url(#au)"/>
    <polygon points="502.819 214.183 391.764 290.784 305.725 227.449 502.819 214.183" fill="url(#av)"/>
    <polygon points="391.764 290.784 312.168 345.705 293.103 358.857 217.298 356.318 76.413 320.31 136.413 227.449 305.725 227.449 391.764 290.784" fill="url(#aw)"/>
    <polygon points="745.397 54.991 572.939 159.224 527.456 58.781 599.471 45.515 745.397 54.991" fill="url(#ax)"/>
    <polygon points="730.236 142.167 688.543 149.748 703.704 128.901 730.236 142.167" fill="url(#ay)"/>
    <polygon points="1660.749 734.398 1539.46 655.75 1613.37 650.064 1660.749 734.398" fill="url(#az)"/>
    <polygon points="1452.928 223.658 1398.954 270.392 1240.672 237.569 1452.928 223.658" fill="url(#ba)"/>
    <polygon points="1243.174 338.617 1177.488 396.116 1170.277 265.351 1243.174 338.617" fill="url(#bb)"/>
    <polygon points="1346.8 371.479 1321.519 413.172 1243.174 338.617 1346.8 371.479" fill="url(#bc)"/>
    <polygon points="1427.647 430.228 1416.276 500.348 1346.8 371.479 1427.647 430.228" fill="url(#bd)"/>
    <polygon points="1240.672 237.569 1170.277 265.351 1051.158 265.351 1126.964 202.812 1240.672 237.569" fill="url(#be)"/>
    <polygon points="975.353 532.831 821.202 524.985 911.184 475.863 975.353 532.831" fill="url(#bf)"/>
    <polygon points="792.359 457.859 724.55 532.566 739.712 335.471 792.359 457.859" fill="url(#bg)"/>
    <polygon points="911.184 475.863 821.202 524.985 792.359 457.859 836.364 409.382 911.184 475.863" fill="url(#bh)"/>
    <polygon points="995.555 669.622 856.907 602.42 975.353 532.831 995.555 669.622" fill="url(#bi)"/>
    <polygon points="1067.57 367.689 940.596 341.157 1051.158 265.351 1067.57 367.689" fill="url(#bj)"/>
    <polygon points="1170.277 265.351 1177.488 396.116 1051.158 265.351 1170.277 265.351" fill="url(#bk)"/>
    <polygon points="955.189 269.634 881.847 272.932 926.231 240.07 955.189 269.634" fill="url(#bl)"/>
    <polygon points="926.231 179.426 926.231 240.07 881.847 272.932 857.21 200.917 926.231 179.426" fill="url(#bm)"/>
    <polygon points="952.611 202.812 926.231 240.07 926.231 179.426 952.611 202.812" fill="url(#bn)"/>
    <polygon points="1051.158 265.351 940.596 341.157 955.189 269.634 1051.158 265.351" fill="url(#bo)"/>
    <polygon points="381.514 641.823 379.998 646.599 288.653 581.822 365.823 572.271 381.514 641.823" fill="url(#bp)"/>
    <polygon points="404.045 530.557 364.095 564.669 324.676 485.187 404.045 530.557" fill="url(#bq)"/>
    <polygon points="439.619 688.898 352.102 743.288 350.586 739.384 379.998 646.599 439.619 688.898" fill="url(#br)"/>
    <polyline points="352.118 743.305 348.669 745.466 350.602 739.401" fill="url(#bs)"/>
    <polygon points="312.168 345.705 305.725 398.011 293.103 358.857 312.168 345.705" fill="url(#bt)"/>
    <polygon points="353.748 439.704 312.168 434.663 277.942 413.172 320.886 416.962 353.748 439.704" fill="url(#bu)"/>
    <polygon points="502.819 214.183 267.822 100.474 493.344 123.216 502.819 214.183" fill="url(#bv)"/>
    <polygon points="1243.174 338.617 1170.277 265.351 1240.672 237.569 1243.174 338.617" fill="url(#bw)"/>
    <polygon points="1465.549 314.625 1427.647 430.228 1346.8 371.479 1243.174 338.617 1240.672 237.569 1398.954 270.392 1452.928 223.658 1465.549 314.625" fill="url(#bx)"/>
    <polygon points="1051.158 265.351 955.189 269.634 926.231 240.07 1051.158 265.351" fill="url(#by)"/>
    <polygon points="1051.158 265.351 926.231 240.07 952.611 202.812 1051.158 265.351" fill="url(#bz)"/>
    <polygon points="1037.248 127.006 952.611 202.812 926.231 179.426 1037.248 127.006" fill="url(#ca)"/>
    <polygon points="1126.964 202.812 1051.158 265.351 952.611 202.812 1037.248 127.006 1126.964 202.812" fill="url(#cb)"/>
  </g>
</svg>
