<svg xmlns="http://www.w3.org/2000/svg" xmlns:xlink="http://www.w3.org/1999/xlink" width="1560.156" height="946.169" viewBox="0 0 1560.156 946.169">
  <defs>
    <linearGradient id="a" x1="1143.257" y1="284" x2="1313.257" y2="284" gradientUnits="userSpaceOnUse">
      <stop offset="0" stop-color="#020202"/>
      <stop offset="1"/>
    </linearGradient>
    <linearGradient id="b" x1="635.257" y1="481" x2="859.257" y2="481" xlink:href="#a"/>
    <linearGradient id="c" x1="635.257" y1="472" x2="769.257" y2="472" xlink:href="#a"/>
    <linearGradient id="d" x1="635.257" y1="560" x2="757.257" y2="560" xlink:href="#a"/>
    <linearGradient id="e" x1="757.257" y1="690" x2="901.257" y2="690" xlink:href="#a"/>
    <linearGradient id="f" x1="757.257" y1="623" x2="924.257" y2="623" xlink:href="#a"/>
    <linearGradient id="g" x1="707.257" y1="357" x2="750.476" y2="357" xlink:href="#a"/>
    <linearGradient id="h" x1="669.257" y1="410" x2="715.257" y2="410" xlink:href="#a"/>
    <linearGradient id="i" x1="731.257" y1="402" x2="774.867" y2="402" xlink:href="#a"/>
    <linearGradient id="j" x1="707.257" y1="383" x2="750.476" y2="383" xlink:href="#a"/>
    <linearGradient id="k" x1="707.257" y1="397" x2="731.257" y2="397" xlink:href="#a"/>
    <linearGradient id="l" x1="750.476" y1="352" x2="799.257" y2="352" xlink:href="#a"/>
    <linearGradient id="m" x1="750.476" y1="385" x2="845.257" y2="385" xlink:href="#a"/>
    <linearGradient id="n" x1="729.257" y1="267" x2="805.257" y2="267" xlink:href="#a"/>
    <linearGradient id="o" x1="729.257" y1="242" x2="805.257" y2="242" xlink:href="#a"/>
    <linearGradient id="p" x1="801.257" y1="220" x2="865.257" y2="220" xlink:href="#a"/>
    <linearGradient id="q" x1="799.257" y1="299" x2="865.257" y2="299" xlink:href="#a"/>
    <linearGradient id="r" x1="865.257" y1="256" x2="947.257" y2="256" xlink:href="#a"/>
    <linearGradient id="s" x1="859.257" y1="470.6" x2="871.617" y2="470.6" xlink:href="#a"/>
    <linearGradient id="t" x1="919.257" y1="490" x2="981.257" y2="490" xlink:href="#a"/>
    <linearGradient id="u" x1="833.947" y1="424.397" x2="903.475" y2="424.397" xlink:href="#a"/>
    <linearGradient id="v" x1="903.475" y1="445.397" x2="1029.257" y2="445.397" xlink:href="#a"/>
    <linearGradient id="w" x1="1029.257" y1="522" x2="1121.257" y2="522" xlink:href="#a"/>
    <linearGradient id="x" x1="1179.257" y1="518" x2="1217.257" y2="518" xlink:href="#a"/>
    <linearGradient id="y" x1="1179.257" y1="547" x2="1217.257" y2="547" xlink:href="#a"/>
    <linearGradient id="z" x1="1143.257" y1="363.279" x2="1313.257" y2="363.279" xlink:href="#a"/>
    <linearGradient id="aa" x1="1121.257" y1="456.279" x2="1256.581" y2="456.279" xlink:href="#a"/>
    <linearGradient id="ab" x1="947.257" y1="205" x2="1143.257" y2="205" xlink:href="#a"/>
    <linearGradient id="ac" x1="903.475" y1="397" x2="1143.257" y2="397" xlink:href="#a"/>
    <linearGradient id="ad" x1="1256.582" y1="378" x2="1313.257" y2="378" xlink:href="#a"/>
    <linearGradient id="ae" x1="1041.257" y1="165" x2="1384.257" y2="165" xlink:href="#a"/>
    <linearGradient id="af" x1="1281.257" y1="165" x2="1384.257" y2="165" xlink:href="#a"/>
    <linearGradient id="ag" x1="1361.257" y1="193" x2="1387.257" y2="193" xlink:href="#a"/>
    <linearGradient id="ah" x1="907.257" y1="696" x2="941.257" y2="696" xlink:href="#a"/>
    <linearGradient id="ai" x1="1199.257" y1="635" x2="1245.257" y2="635" xlink:href="#a"/>
    <linearGradient id="aj" x1="1161.257" y1="612" x2="1203.257" y2="612" xlink:href="#a"/>
    <linearGradient id="ak" x1="1223.257" y1="604" x2="1255.257" y2="604" xlink:href="#a"/>
    <linearGradient id="al" x1="1361.257" y1="630" x2="1407.257" y2="630" xlink:href="#a"/>
    <linearGradient id="am" x1="1323.257" y1="629" x2="1369.257" y2="629" xlink:href="#a"/>
    <linearGradient id="an" x1="1275.257" y1="546" x2="1303.257" y2="546" xlink:href="#a"/>
    <linearGradient id="ao" x1="1303.257" y1="414" x2="1349.257" y2="414" xlink:href="#a"/>
    <linearGradient id="ap" x1="1333.257" y1="380" x2="1349.257" y2="380" xlink:href="#a"/>
    <linearGradient id="aq" x1="1239.257" y1="728" x2="1331.257" y2="728" xlink:href="#a"/>
    <linearGradient id="ar" x1="1319.257" y1="786" x2="1419.257" y2="786" xlink:href="#a"/>
    <linearGradient id="as" x1="1495.257" y1="828" x2="1517.257" y2="828" xlink:href="#a"/>
    <linearGradient id="at" x1="1441.257" y1="878" x2="1479.257" y2="878" xlink:href="#a"/>
    <linearGradient id="au" x1="341.257" y1="632.685" x2="389.257" y2="632.685" xlink:href="#a"/>
    <linearGradient id="av" x1="389.257" y1="723" x2="553.257" y2="723" xlink:href="#a"/>
    <linearGradient id="aw" x1="389.257" y1="792" x2="433.257" y2="792" xlink:href="#a"/>
    <linearGradient id="ax" x1="364.197" y1="621" x2="400.257" y2="621" xlink:href="#a"/>
    <linearGradient id="ay" x1="165.257" y1="387" x2="367.257" y2="387" xlink:href="#a"/>
    <linearGradient id="az" x1="165.257" y1="452.618" x2="285.257" y2="452.618" xlink:href="#a"/>
    <linearGradient id="ba" x1="59.257" y1="154" x2="217.257" y2="154" xlink:href="#a"/>
    <linearGradient id="bb" x1="59.257" y1="186" x2="217.257" y2="186" xlink:href="#a"/>
    <linearGradient id="bc" x1="333.257" y1="204" x2="467.257" y2="204" xlink:href="#a"/>
    <linearGradient id="bd" x1="367.257" y1="299" x2="479.257" y2="299" xlink:href="#a"/>
    <linearGradient id="be" x1="341.257" y1="80" x2="511.257" y2="80" xlink:href="#a"/>
    <linearGradient id="bf" x1="529.257" y1="209.5" x2="629.257" y2="209.5" xlink:href="#a"/>
    <linearGradient id="bg" x1="495.527" y1="94.5" x2="629.257" y2="94.5" xlink:href="#a"/>
    <linearGradient id="bh" x1="693.257" y1="322" x2="715.257" y2="322" xlink:href="#a"/>
    <linearGradient id="bi" x1="669.257" y1="330" x2="681.257" y2="330" xlink:href="#a"/>
    <linearGradient id="bj" x1="859.257" y1="490" x2="919.257" y2="490" xlink:href="#a"/>
    <linearGradient id="bk" x1="635.257" y1="536" x2="859.257" y2="536" xlink:href="#a"/>
    <linearGradient id="bl" x1="757.257" y1="536" x2="924.257" y2="536" xlink:href="#a"/>
    <linearGradient id="bm" x1="859.257" y1="520" x2="924.257" y2="520" xlink:href="#a"/>
    <linearGradient id="bn" x1="859.257" y1="424.397" x2="919.257" y2="424.397" xlink:href="#a"/>
    <linearGradient id="bo" x1="845.257" y1="352.397" x2="947.257" y2="352.397" xlink:href="#a"/>
    <linearGradient id="bp" x1="903.475" y1="445.397" x2="1121.257" y2="445.397" xlink:href="#a"/>
    <linearGradient id="bq" x1="1203.257" y1="456.279" x2="1256.581" y2="456.279" xlink:href="#a"/>
    <linearGradient id="br" x1="1121.257" y1="397" x2="1256.581" y2="397" xlink:href="#a"/>
    <linearGradient id="bs" x1="1121.257" y1="511" x2="1203.257" y2="511" xlink:href="#a"/>
    <linearGradient id="bt" x1="1121.257" y1="539" x2="1183.257" y2="539" xlink:href="#a"/>
    <linearGradient id="bu" x1="935.257" y1="205" x2="1041.257" y2="205" xlink:href="#a"/>
    <linearGradient id="bv" x1="845.257" y1="299" x2="947.257" y2="299" xlink:href="#a"/>
    <linearGradient id="bw" x1="750.476" y1="352" x2="845.257" y2="352" xlink:href="#a"/>
    <linearGradient id="bx" x1="799.257" y1="277" x2="865.257" y2="277" xlink:href="#a"/>
    <linearGradient id="by" x1="1041.257" y1="203" x2="1281.257" y2="203" xlink:href="#a"/>
    <linearGradient id="bz" x1="495.527" y1="140" x2="629.257" y2="140" xlink:href="#a"/>
    <linearGradient id="ca" x1="363.257" y1="379" x2="479.257" y2="379" xlink:href="#a"/>
    <linearGradient id="cb" x1="299.257" y1="191" x2="431.257" y2="191" xlink:href="#a"/>
    <linearGradient id="cc" x1="217.257" y1="191" x2="333.257" y2="191" xlink:href="#a"/>
    <linearGradient id="cd" x1="165.257" y1="315" x2="367.257" y2="315" xlink:href="#a"/>
    <linearGradient id="ce" x1="181.257" y1="200" x2="333.257" y2="200" xlink:href="#a"/>
    <linearGradient id="cf" x1="181.257" y1="273" x2="367.257" y2="273" xlink:href="#a"/>
    <linearGradient id="cg" x1="224.832" y1="491.5" x2="295.257" y2="491.5" xlink:href="#a"/>
    <linearGradient id="ch" x1="285.257" y1="516.685" x2="364.197" y2="516.685" xlink:href="#a"/>
    <linearGradient id="ci" x1="389.257" y1="621" x2="553.257" y2="621" xlink:href="#a"/>
    <linearGradient id="cj" x1="1331.257" y1="705" x2="1419.257" y2="705" xlink:href="#a"/>
    <linearGradient id="ck" x1="1245.257" y1="728" x2="1331.257" y2="728" xlink:href="#a"/>
    <linearGradient id="cl" x1="1319.257" y1="715" x2="1419.257" y2="715" xlink:href="#a"/>
    <linearGradient id="cm" x1="903.475" y1="350.397" x2="1143.257" y2="350.397" xlink:href="#a"/>
  </defs>
  <title>bg_3</title>
  <rect width="1560.156" height="946.169" fill="none"/>
  <g opacity="0.2">
    <polygon points="1313.257 329 1143.257 311 1281.257 239 1313.257 329" opacity="0.6" fill="url(#a)"/>
    <polygon points="859.257 459 635.257 507 769.257 455 859.257 459" opacity="0.8" fill="url(#b)"/>
    <polygon points="769.257 455 635.257 507 715.257 437 769.257 455" opacity="0.6" fill="url(#c)"/>
    <polygon points="757.257 613 667.257 579 635.257 507 757.257 613" opacity="0.9" fill="url(#d)"/>
    <polygon points="901.257 665 799.257 767 757.257 613 901.257 665" opacity="0.6" fill="url(#e)"/>
    <polygon points="924.257 581 901.257 665 757.257 613 924.257 581" opacity="0.9" fill="url(#f)"/>
    <polygon points="750.476 331 750.476 383 707.257 369 750.476 331" opacity="0.6" fill="url(#g)"/>
    <polygon points="715.257 425 669.257 415 707.257 395 715.257 425" opacity="0.6" fill="url(#h)"/>
    <polygon points="774.867 421 731.257 397 750.476 383 774.867 421" opacity="0.6" fill="url(#i)"/>
    <polygon points="750.476 383 731.257 397 707.257 369 750.476 383" opacity="0.9" fill="url(#j)"/>
    <polygon points="731.257 397 715.257 425 707.257 395 707.257 369 731.257 397" opacity="0.4" fill="url(#k)"/>
    <polygon points="799.257 321 750.476 383 750.476 331 799.257 321" opacity="0.9" fill="url(#l)"/>
    <polygon points="750.476 383 845.257 365 809.257 405 750.476 383" opacity="0.9" fill="url(#m)"/>
    <polygon points="805.257 239 777.257 295 729.257 283 805.257 239" opacity="0.6" fill="url(#n)"/>
    <polygon points="805.257 239 729.257 283 801.257 201 805.257 239" opacity="0.9" fill="url(#o)"/>
    <polygon points="865.257 233 805.257 239 801.257 201 865.257 233" opacity="0.2" fill="url(#p)"/>
    <polygon points="865.257 233 845.257 365 799.257 321 865.257 233" opacity="0.9" fill="url(#q)"/>
    <polygon points="947.257 315 865.257 233 935.257 197 947.257 315" opacity="0.9" fill="url(#r)"/>
    <polygon points="867.257 477 859.257 459 871.617 482.2 867.257 477" opacity="0.9" fill="url(#s)"/>
    <polygon points="981.257 503 919.257 539 919.257 441 981.257 503" opacity="0.2" fill="url(#t)"/>
    <polygon points="903.475 389.794 859.257 459 833.947 405 903.475 389.794" opacity="0.9" fill="url(#u)"/>
    <polygon points="1029.257 501 919.257 441 903.475 389.794 1029.257 501" opacity="0.8" fill="url(#v)"/>
    <polygon points="1121.257 483 1073.257 561 1029.257 501 1121.257 483" opacity="0.8" fill="url(#w)"/>
    <polygon points="1217.257 537 1179.257 539 1203.257 497 1217.257 537" opacity="0.9" fill="url(#x)"/>
    <polygon points="1205.257 557 1179.257 539 1217.257 537 1205.257 557" opacity="0.6" fill="url(#y)"/>
    <polyline points="1143.257 311 1313.257 329 1256.581 415.559" opacity="0.2" fill="url(#z)"/>
    <polygon points="1256.581 415.559 1203.257 497 1121.257 483 1256.581 415.559" opacity="0.6" fill="url(#aa)"/>
    <polygon points="1143.257 311 947.257 315 1041.257 95 1143.257 311" opacity="0.6" fill="url(#ab)"/>
    <polygon points="1121.257 483 903.475 389.794 1143.257 311 1121.257 483" opacity="0.4" fill="url(#ac)"/>
    <polyline points="1256.582 415.558 1313.257 329 1285.257 427 1256.582 415.558" opacity="0.8" fill="url(#ad)"/>
    <polygon points="1384.257 91 1281.257 239 1041.257 95 1384.257 91" opacity="0.9" fill="url(#ae)"/>
    <polygon points="1384.257 91 1361.257 189 1281.257 239 1384.257 91" opacity="0.6" fill="url(#af)"/>
    <polygon points="1387.257 189 1379.257 295 1361.257 189 1384.257 91 1387.257 189" opacity="0.2" fill="url(#ag)"/>
    <polygon points="941.257 663 907.257 707 927.257 729 941.257 663" opacity="0.9" fill="url(#ah)"/>
    <polygon points="1245.257 647 1199.257 637 1203.257 623 1245.257 647" opacity="0.9" fill="url(#ai)"/>
    <polygon points="1203.257 623 1199.257 637 1161.257 587 1203.257 623" opacity="0.9" fill="url(#aj)"/>
    <polygon points="1255.257 581 1255.257 627 1223.257 611 1255.257 581" opacity="0.9" fill="url(#ak)"/>
    <polygon points="1407.257 649 1369.257 647 1361.257 611 1407.257 649" opacity="0.6" fill="url(#al)"/>
    <polygon points="1369.257 647 1323.257 611 1361.257 611 1369.257 647" opacity="0.8" fill="url(#am)"/>
    <polygon points="1275.257 517 1279.257 553 1303.257 575 1275.257 517" opacity="0.9" fill="url(#an)"/>
    <polygon points="1349.257 409 1303.257 433 1333.257 395 1349.257 409" opacity="0.4" fill="url(#ao)"/>
    <polygon points="1349.257 409 1333.257 395 1337.257 351 1349.257 409" opacity="0.9" fill="url(#ap)"/>
    <polygon points="1331.257 663 1245.257 793 1239.257 721 1331.257 663" opacity="0.9" fill="url(#aq)"/>
    <polygon points="1419.257 747 1371.257 825 1319.257 767 1419.257 747" opacity="0.2" fill="url(#ar)"/>
    <polygon points="1517.257 831 1495.257 849 1495.257 807 1517.257 831" opacity="0.8" fill="url(#as)"/>
    <polygon points="1479.257 857 1451.257 899 1441.257 883 1479.257 857" opacity="0.9" fill="url(#at)"/>
    <polygon points="389.257 691 341.257 627 364.197 574.37 389.257 691" opacity="0.8" fill="url(#au)"/>
    <polygon points="553.257 639 433.257 807 389.257 691 553.257 639" opacity="0.8" fill="url(#av)"/>
    <polygon points="389.257 691 433.257 807 415.257 893 389.257 691" opacity="0.2" fill="url(#aw)"/>
    <polygon points="389.257 691 364.197 574.37 400.257 551 389.257 691" opacity="0.9" fill="url(#ax)"/>
    <polygon points="367.257 315 363.257 443 285.257 459 165.257 399 367.257 315" opacity="0.8" fill="url(#ay)"/>
    <polygon points="285.257 459 224.832 506.236 165.257 399 285.257 459" opacity="0.9" fill="url(#az)"/>
    <polygon points="217.257 141 59.257 209 141.257 99 217.257 141" opacity="0.4" fill="url(#ba)"/>
    <polygon points="217.257 141 181.257 231 59.257 209 217.257 141" opacity="0.6" fill="url(#bb)"/>
    <polygon points="467.257 233 333.257 259 431.257 149 467.257 233" opacity="0.2" fill="url(#bc)"/>
    <polygon points="479.257 339 367.257 315 415.257 259 479.257 339" opacity="0.6" fill="url(#bd)"/>
    <polygon points="341.257 81 511.257 31 439.257 129 341.257 81" opacity="0.9" fill="url(#be)"/>
    <polygon points="629.257 152 531.257 267 529.257 185 629.257 152" opacity="0.9" fill="url(#bf)"/>
    <polygon points="629.257 152 495.527 95 623.257 37 629.257 152" opacity="0.6" fill="url(#bg)"/>
    <polygon points="715.257 327 697.257 345 693.257 299 715.257 327" opacity="0.6" fill="url(#bh)"/>
    <polygon points="681.257 315 669.257 329 681.257 345 681.257 315" opacity="0.9" fill="url(#bi)"/>
    <polygon points="919.257 441 919.257 539 871.617 482.2 859.257 459 919.257 441" opacity="0.6" fill="url(#bj)"/>
    <polygon points="859.257 459 757.257 613 635.257 507 859.257 459" opacity="0.2" fill="url(#bk)"/>
    <polygon points="924.257 581 757.257 613 859.257 459 867.257 477 924.257 581" opacity="0.8" fill="url(#bl)"/>
    <polygon points="924.257 581 867.257 477 859.257 459 871.617 482.2 924.257 581" opacity="0.6" fill="url(#bm)"/>
    <polygon points="919.257 441 859.257 459 903.475 389.794 919.257 441" opacity="0.4" fill="url(#bn)"/>
    <polygon points="947.257 315 903.475 389.794 845.257 365 947.257 315" opacity="0.2" fill="url(#bo)"/>
    <polygon points="1121.257 483 1029.257 501 903.475 389.794 1121.257 483" opacity="0.2" fill="url(#bp)"/>
    <polygon points="1256.581 415.559 1247.257 489 1203.257 497 1256.581 415.559" opacity="0.4" fill="url(#bq)"/>
    <polygon points="1256.581 415.559 1121.257 483 1143.257 311 1256.581 415.559" opacity="0.9" fill="url(#br)"/>
    <polygon points="1203.257 497 1179.257 539 1121.257 483 1203.257 497" opacity="0.2" fill="url(#bs)"/>
    <polygon points="1179.257 539 1121.257 483 1165.257 541 1183.257 595 1179.257 539" opacity="0.6" fill="url(#bt)"/>
    <polygon points="1041.257 95 947.257 315 935.257 197 1041.257 95" opacity="0.8" fill="url(#bu)"/>
    <polygon points="947.257 315 845.257 365 865.257 233 947.257 315" opacity="0.6" fill="url(#bv)"/>
    <polygon points="845.257 365 750.476 383 799.257 321 845.257 365" opacity="0.2" fill="url(#bw)"/>
    <polygon points="865.257 233 799.257 321 805.257 239 865.257 233" opacity="0.4" fill="url(#bx)"/>
    <polygon points="1281.257 239 1143.257 311 1041.257 95 1281.257 239" opacity="0.8" fill="url(#by)"/>
    <polygon points="629.257 152 529.257 185 495.527 95 629.257 152" opacity="0.2" fill="url(#bz)"/>
    <polygon points="479.257 339 363.257 443 367.257 315 479.257 339" opacity="0.8" fill="url(#ca)"/>
    <polygon points="431.257 149 333.257 259 299.257 123 431.257 149" opacity="0.9" fill="url(#cb)"/>
    <polygon points="333.257 259 217.257 141 299.257 123 333.257 259" opacity="0.6" fill="url(#cc)"/>
    <polygon points="367.257 315 165.257 399 181.257 231 367.257 315" opacity="0.6" fill="url(#cd)"/>
    <polygon points="333.257 259 181.257 231 217.257 141 333.257 259" opacity="0.4" fill="url(#ce)"/>
    <polygon points="367.257 315 181.257 231 333.257 259 367.257 315" opacity="0.9" fill="url(#cf)"/>
    <polygon points="295.257 524 224.832 506.236 285.257 459 295.257 524" opacity="0.6" fill="url(#cg)"/>
    <polygon points="285.257 459 295.257 524 364.197 574.37 285.257 459" opacity="0.4" fill="url(#ch)"/>
    <polygon points="553.257 639 389.257 691 400.257 551 553.257 639" opacity="0.6" fill="url(#ci)"/>
    <polygon points="1419.257 747 1331.257 663 1379.257 685 1419.257 747" opacity="0.6" fill="url(#cj)"/>
    <polygon points="1331.257 663 1319.257 767 1245.257 793 1331.257 663" opacity="0.6" fill="url(#ck)"/>
    <polygon points="1419.257 747 1319.257 767 1331.257 663 1419.257 747" opacity="0.9" fill="url(#cl)"/>
    <polygon points="1143.257 311 903.475 389.794 947.257 315 1143.257 311" opacity="0.9" fill="url(#cm)"/>
  </g>
</svg>
