<svg xmlns="http://www.w3.org/2000/svg" width="1045.5" height="1884.8" viewBox="0 0 1045.5 1884.8">
  <title>bg_5</title>
  <polyline points="1044 269.32 1045.5 269.26 1044 267.75" fill="none" opacity="0.3"/>
  <polyline points="1044 1883.78 1045.5 1884.8 784.12 1884.8 784.11 1884.79" fill="none" opacity="0.3"/>
  <line x1="261.38" y1="1884.8" x2="261.38" y2="1884.79" fill="none" opacity="0.3"/>
  <line x1="1045.5" y1="269.26" x2="1044" y2="272.28" fill="none" opacity="0.3"/>
  <polygon points="1044 269.32 1044 272.28 872 618.94 632 284.63 1044 269.32" fill="#96bc7d" opacity="0.3"/>
  <polygon points="680 748 424 688 632 284.63 680 748" fill="#96bc7d" opacity="0.3"/>
  <polygon points="680 748 604 1188 444 956 680 748" fill="#96bc7d" opacity="0.3"/>
  <polygon points="444 956 240 1240 0 1075.44 444 956" fill="#96bc7d" opacity="0.3"/>
  <polygon points="522.75 1615.54 261.38 1480.91 240 1240 522.75 1615.54" fill="#96bc7d" opacity="0.3"/>
  <polygon points="261.38 1480.91 261.38 1884.79 261.37 1884.79 0 1615.54 261.38 1480.91" fill="#96bc7d" opacity="0.3"/>
  <polygon points="261.37 1884.79 0 1884.79 0 1615.54 261.37 1884.79" fill="#aed99b" opacity="0.3"/>
  <polygon points="261.38 1480.91 0 1615.54 0 1075.44 261.38 1480.91" fill="#97d97b" opacity="0.3"/>
  <polygon points="261.38 1480.91 0 1075.44 240 1240 261.38 1480.91" fill="#99d97e" opacity="0.3"/>
  <polygon points="648 1340 648 1615.54 522.75 1615.54 648 1340" fill="#96bc7d" opacity="0.3"/>
  <polygon points="914.81 960 914.81 1346.29 604 1188 914.81 960" fill="#96bc7d" opacity="0.3"/>
  <polygon points="604 1188 240 1240 444 956 604 1188" fill="#b2cc9f" opacity="0.3"/>
  <polygon points="1044 1592 648 1615.54 914.81 1346.29 1044 1592" fill="#b2cc9f" opacity="0.3"/>
  <polygon points="776 1884.79 261.39 1884.79 522.75 1615.54 768.22 1868.42 776 1884.79" fill="#b2cc9f" opacity="0.3"/>
  <polygon points="522.75 1615.54 261.39 1884.79 261.38 1884.79 261.38 1480.91 522.75 1615.54" fill="#99d97e" opacity="0.3"/>
  <polygon points="768.22 1868.42 522.75 1615.54 648 1615.54 768.22 1868.42" fill="#97d97b" opacity="0.3"/>
  <polygon points="1044 1592 1044 1883.78 648 1615.54 1044 1592" fill="#aed99b" opacity="0.3"/>
  <polygon points="1044 1883.78 1044 1884.79 784.11 1884.79 768.22 1868.42 648 1615.54 1044 1883.78" fill="#93a58b" opacity="0.3"/>
  <polygon points="784.11 1884.79 776 1884.79 768.22 1868.42 784.11 1884.79" fill="none" opacity="0.3"/>
  <polygon points="648 1340 522.75 1615.54 240 1240 648 1340" fill="#b2cc9f" opacity="0.3"/>
  <polygon points="914.81 1346.29 648 1340 604 1188 914.81 1346.29" fill="#aed99b" opacity="0.3"/>
  <polygon points="648 1340 240 1240 604 1188 648 1340" fill="#93a58b" opacity="0.3"/>
  <polygon points="914.81 1346.29 648 1615.54 648 1340 914.81 1346.29" fill="#93a58b" opacity="0.3"/>
  <polygon points="872 618.94 680 748 632 284.63 872 618.94" fill="#97d97b" opacity="0.3"/>
  <polygon points="1044 1088 1044 1592 914.81 1346.29 1044 1088" fill="#97d97b" opacity="0.3"/>
  <polygon points="1044 724 914.81 960 872 618.94 1044 724" fill="#97d97b" opacity="0.3"/>
  <polygon points="914.81 960 604 1188 680 748 914.81 960" fill="#aed99b" opacity="0.3"/>
  <polygon points="914.81 960 680 748 872 618.94 914.81 960" fill="#93a58b" opacity="0.3"/>
  <polygon points="1044 1088 914.81 1346.29 914.81 960 1044 1088" fill="#aed99b" opacity="0.3"/>
  <polygon points="1044 272.28 1044 724 872 618.94 1044 272.28" fill="#99d97e" opacity="0.3"/>
  <polygon points="1044 724 1044 1088 914.81 960 1044 724" fill="#99d97e" opacity="0.3"/>
  <polygon points="256 269.26 150.79 418.31 0 0 256 269.26" fill="#96bc7d" opacity="0.3"/>
  <polygon points="632 284.63 256 269.26 522.75 0 632 284.63" fill="#96bc7d" opacity="0.3"/>
  <polygon points="632 284.63 424 688 256 269.26 632 284.63" fill="#b2cc9f" opacity="0.3"/>
  <polygon points="444 956 130.69 695.76 150.79 418.31 424 688 444 956" fill="#b2cc9f" opacity="0.3"/>
  <polygon points="150.79 418.31 130.69 695.76 0 538.51 150.79 418.31" fill="#97d97b" opacity="0.3"/>
  <polygon points="150.79 418.31 0 538.51 0 0 150.79 418.31" fill="#99d97e" opacity="0.3"/>
  <polygon points="130.69 695.76 0 1075.44 0 538.51 130.69 695.76" fill="#99d97e" opacity="0.3"/>
  <polygon points="444 956 0 1075.44 130.69 695.76 444 956" fill="#aed99b" opacity="0.3"/>
  <polygon points="424 688 150.79 418.31 256 269.26 424 688" fill="#93a58b" opacity="0.3"/>
  <polygon points="680 748 444 956 424 688 680 748" fill="#97d97b" opacity="0.3"/>
  <polygon points="522.75 0 256 269.26 0 0 522.75 0" fill="#97d97b" opacity="0.3"/>
  <polygon points="812.57 0 632 284.63 522.75 0 812.57 0" fill="#99d97e" opacity="0.3"/>
  <polygon points="1044 267.75 1044 269.32 632 284.63 812.57 0 1044 267.75" fill="#aed99b" opacity="0.3"/>
  <polygon points="1044 0 1044 267.75 812.57 0 1044 0" fill="#93a58b" opacity="0.3"/>
</svg>
