<svg xmlns="http://www.w3.org/2000/svg" xmlns:xlink="http://www.w3.org/1999/xlink" width="1045.5" height="1884.8" viewBox="0 0 1045.5 1884.8">
  <defs>
    <linearGradient id="a" x1="424" y1="1367.685" x2="680" y2="1367.685" gradientTransform="matrix(1, 0, 0, -1, 0, 1884)" gradientUnits="userSpaceOnUse">
      <stop offset="0" stop-color="#62c17d" stop-opacity="0.7"/>
      <stop offset="1" stop-color="#62c17d"/>
    </linearGradient>
    <linearGradient id="b" x1="444" y1="916" x2="680" y2="916" gradientTransform="matrix(1, 0, 0, -1, 0, 1884)" gradientUnits="userSpaceOnUse">
      <stop offset="0" stop-color="#7bea96" stop-opacity="0.7"/>
      <stop offset="1" stop-color="#7bea96"/>
    </linearGradient>
    <linearGradient id="c" x1="0" y1="786" x2="444" y2="786" xlink:href="#b"/>
    <linearGradient id="d" x1="240" y1="456.23" x2="522.75" y2="456.23" xlink:href="#b"/>
    <linearGradient id="e" x1="0" y1="201.15" x2="261.38" y2="201.15" xlink:href="#b"/>
    <linearGradient id="f" y1="133.835" x2="261.37" y2="133.835" gradientTransform="matrix(1, 0, 0, -1, 0, 1884)" gradientUnits="userSpaceOnUse">
      <stop offset="0" stop-color="#3abc62" stop-opacity="0.7"/>
      <stop offset="1" stop-color="#3abc62"/>
    </linearGradient>
    <linearGradient id="g" y1="538.51" x2="261.38" y2="538.51" xlink:href="#f"/>
    <linearGradient id="h" y1="605.825" x2="261.38" y2="605.825" gradientTransform="matrix(1, 0, 0, -1, 0, 1884)" gradientUnits="userSpaceOnUse">
      <stop offset="0" stop-color="#44ad5a" stop-opacity="0.7"/>
      <stop offset="1" stop-color="#44ad5a"/>
    </linearGradient>
    <linearGradient id="i" x1="522.75" y1="406.23" x2="648" y2="406.23" gradientTransform="matrix(1, 0, 0, -1, 0, 1884)" gradientUnits="userSpaceOnUse">
      <stop offset="0" stop-color="#7dd798" stop-opacity="0.7"/>
      <stop offset="1" stop-color="#7dd798"/>
    </linearGradient>
    <linearGradient id="j" x1="604" y1="730.855" x2="914.81" y2="730.855" xlink:href="#b"/>
    <linearGradient id="k" x1="240" y1="786" x2="604" y2="786" xlink:href="#i"/>
    <linearGradient id="l" x1="648" y1="403.085" x2="1044" y2="403.085" xlink:href="#i"/>
    <linearGradient id="m" x1="261.39" y1="133.835" x2="776" y2="133.835" xlink:href="#i"/>
    <linearGradient id="n" x1="261.38" y1="201.15" x2="522.75" y2="201.15" xlink:href="#h"/>
    <linearGradient id="o" x1="522.75" y1="142.02" x2="768.22" y2="142.02" xlink:href="#h"/>
    <linearGradient id="p" x1="648" y1="146.11" x2="1044" y2="146.11" xlink:href="#f"/>
    <linearGradient id="q" x1="648" y1="133.835" x2="1044" y2="133.835" xlink:href="#a"/>
    <linearGradient id="r" x1="240" y1="456.23" x2="648" y2="456.23" xlink:href="#h"/>
    <linearGradient id="s" x1="604" y1="616.855" x2="914.81" y2="616.855" xlink:href="#f"/>
    <linearGradient id="t" x1="240" y1="620" x2="648" y2="620" xlink:href="#a"/>
    <linearGradient id="u" x1="648" y1="406.23" x2="914.81" y2="406.23" xlink:href="#a"/>
    <linearGradient id="v" x1="632" y1="1367.685" x2="872" y2="1367.685" xlink:href="#b"/>
    <linearGradient id="w" x1="914.81" y1="544" x2="1044" y2="544" xlink:href="#h"/>
    <linearGradient id="x" x1="872" y1="1094.53" x2="1044" y2="1094.53" xlink:href="#i"/>
    <linearGradient id="y" x1="604" y1="916" x2="914.81" y2="916" xlink:href="#f"/>
    <linearGradient id="z" x1="680" y1="1094.53" x2="914.81" y2="1094.53" xlink:href="#a"/>
    <linearGradient id="aa" x1="914.81" y1="730.855" x2="1044" y2="730.855" xlink:href="#f"/>
    <linearGradient id="ab" x1="872" y1="1387.37" x2="1045.5" y2="1387.37" xlink:href="#h"/>
    <linearGradient id="ac" x1="914.81" y1="978" x2="1044" y2="978" xlink:href="#h"/>
    <linearGradient id="ad" x1="0" y1="1674.845" x2="256" y2="1674.845" xlink:href="#i"/>
    <linearGradient id="ae" x1="256" y1="1741.685" x2="632" y2="1741.685" xlink:href="#i"/>
    <linearGradient id="af" x1="256" y1="1405.37" x2="632" y2="1405.37" xlink:href="#f"/>
    <linearGradient id="ag" x1="130.69" y1="1062" x2="444" y2="1062" xlink:href="#b"/>
    <linearGradient id="ah" x1="130.69" y1="1326.965" x2="424" y2="1326.965" xlink:href="#i"/>
    <linearGradient id="ai" y1="1326.965" x2="150.79" y2="1326.965" xlink:href="#f"/>
    <linearGradient id="aj" y1="1614.745" x2="150.79" y2="1614.745" xlink:href="#h"/>
    <linearGradient id="ak" x1="0" y1="1077.025" x2="130.69" y2="1077.025" xlink:href="#a"/>
    <linearGradient id="al" y1="998.4" x2="444" y2="998.4" xlink:href="#f"/>
    <linearGradient id="am" x1="150.79" y1="1405.37" x2="424" y2="1405.37" xlink:href="#a"/>
    <linearGradient id="an" x1="424" y1="1062" x2="680" y2="1062" xlink:href="#h"/>
    <linearGradient id="ao" x1="0" y1="1749.37" x2="522.75" y2="1749.37" xlink:href="#b"/>
    <linearGradient id="ap" x1="522.75" y1="1741.685" x2="812.57" y2="1741.685" xlink:href="#f"/>
    <linearGradient id="aq" x1="812.57" y1="1749.37" x2="1045.5" y2="1749.37" xlink:href="#a"/>
    <linearGradient id="ar" x1="632" y1="444.1" x2="1045.5" y2="444.1" gradientTransform="matrix(1, 0, 0, 1, 0, 0)" xlink:href="#i"/>
    <linearGradient id="as" x1="632" y1="142.315" x2="1045.5" y2="142.315" gradientTransform="matrix(1, 0, 0, 1, 0, 0)" xlink:href="#h"/>
  </defs>
  <title>bg_6</title>
  <polyline points="1044 269.32 1045.5 269.26 1044 267.75" fill="none" opacity="0.3"/>
  <polyline points="1044 1883.78 1045.5 1884.8 784.12 1884.8 784.11 1884.79" fill="none" opacity="0.3"/>
  <line x1="261.38" y1="1884.8" x2="261.38" y2="1884.79" fill="none" opacity="0.3"/>
  <line x1="1045.5" y1="269.26" x2="1044" y2="272.28" fill="none" opacity="0.3"/>
  <polygon points="680 748 424 688 632 284.63 680 748" opacity="0.3" fill="url(#a)" style="isolation: isolate"/>
  <polygon points="680 748 604 1188 444 956 680 748" opacity="0.3" fill="url(#b)" style="isolation: isolate"/>
  <polygon points="444 956 240 1240 0 1075.44 444 956" opacity="0.3" fill="url(#c)" style="isolation: isolate"/>
  <polygon points="522.75 1615.54 261.38 1480.91 240 1240 522.75 1615.54" opacity="0.3" fill="url(#d)" style="isolation: isolate"/>
  <polygon points="261.38 1480.91 261.38 1884.79 261.37 1884.79 0 1615.54 261.38 1480.91" opacity="0.3" fill="url(#e)" style="isolation: isolate"/>
  <polygon points="261.37 1884.79 0 1884.79 0 1615.54 261.37 1884.79" opacity="0.3" fill="url(#f)" style="isolation: isolate"/>
  <polygon points="261.38 1480.91 0 1615.54 0 1075.44 261.38 1480.91" opacity="0.3" fill="url(#g)" style="isolation: isolate"/>
  <polygon points="261.38 1480.91 0 1075.44 240 1240 261.38 1480.91" opacity="0.3" fill="url(#h)" style="isolation: isolate"/>
  <polygon points="648 1340 648 1615.54 522.75 1615.54 648 1340" opacity="0.3" fill="url(#i)" style="isolation: isolate"/>
  <polygon points="914.81 960 914.81 1346.29 604 1188 914.81 960" opacity="0.3" fill="url(#j)" style="isolation: isolate"/>
  <polygon points="604 1188 240 1240 444 956 604 1188" opacity="0.3" fill="url(#k)" style="isolation: isolate"/>
  <polygon points="1044 1592 648 1615.54 914.81 1346.29 1044 1592" opacity="0.3" fill="url(#l)" style="isolation: isolate"/>
  <polygon points="776 1884.79 261.39 1884.79 522.75 1615.54 768.22 1868.42 776 1884.79" opacity="0.3" fill="url(#m)" style="isolation: isolate"/>
  <polygon points="522.75 1615.54 261.39 1884.79 261.38 1884.79 261.38 1480.91 522.75 1615.54" opacity="0.3" fill="url(#n)" style="isolation: isolate"/>
  <polygon points="768.22 1868.42 522.75 1615.54 648 1615.54 768.22 1868.42" opacity="0.3" fill="url(#o)" style="isolation: isolate"/>
  <polygon points="1044 1592 1044 1883.78 648 1615.54 1044 1592" opacity="0.3" fill="url(#p)" style="isolation: isolate"/>
  <polygon points="1044 1883.78 1044 1884.79 784.11 1884.79 768.22 1868.42 648 1615.54 1044 1883.78" opacity="0.3" fill="url(#q)" style="isolation: isolate"/>
  <polygon points="784.11 1884.79 776 1884.79 768.22 1868.42 784.11 1884.79" fill="none" opacity="0.3"/>
  <polygon points="648 1340 522.75 1615.54 240 1240 648 1340" opacity="0.3" fill="url(#r)" style="isolation: isolate"/>
  <polygon points="914.81 1346.29 648 1340 604 1188 914.81 1346.29" opacity="0.3" fill="url(#s)" style="isolation: isolate"/>
  <polygon points="648 1340 240 1240 604 1188 648 1340" opacity="0.3" fill="url(#t)" style="isolation: isolate"/>
  <polygon points="914.81 1346.29 648 1615.54 648 1340 914.81 1346.29" opacity="0.3" fill="url(#u)" style="isolation: isolate"/>
  <polygon points="872 618.94 680 748 632 284.63 872 618.94" opacity="0.3" fill="url(#v)" style="isolation: isolate"/>
  <polygon points="1044 1088 1044 1592 914.81 1346.29 1044 1088" opacity="0.3" fill="url(#w)" style="isolation: isolate"/>
  <polygon points="1044 724 914.81 960 872 618.94 1044 724" opacity="0.3" fill="url(#x)" style="isolation: isolate"/>
  <polygon points="914.81 960 604 1188 680 748 914.81 960" opacity="0.3" fill="url(#y)" style="isolation: isolate"/>
  <polygon points="914.81 960 680 748 872 618.94 914.81 960" opacity="0.3" fill="url(#z)" style="isolation: isolate"/>
  <polygon points="1044 1088 914.81 1346.29 914.81 960 1044 1088" opacity="0.3" fill="url(#aa)" style="isolation: isolate"/>
  <polygon points="1045.5 269.26 1044 724 872 618.94 1045.5 269.26" opacity="0.3" fill="url(#ab)" style="isolation: isolate"/>
  <polygon points="1044 724 1044 1088 914.81 960 1044 724" opacity="0.3" fill="url(#ac)" style="isolation: isolate"/>
  <polygon points="256 269.26 150.79 418.31 0 0 256 269.26" opacity="0.3" fill="url(#ad)" style="isolation: isolate"/>
  <polygon points="632 284.63 256 269.26 522.75 0 632 284.63" opacity="0.3" fill="url(#ae)" style="isolation: isolate"/>
  <polygon points="632 284.63 424 688 256 269.26 632 284.63" opacity="0.3" fill="url(#af)" style="isolation: isolate"/>
  <polyline points="424 688 444 956 130.69 695.76" opacity="0.3" fill="url(#ag)" style="isolation: isolate"/>
  <polyline points="130.69 695.76 150.79 418.31 424 688" opacity="0.3" fill="url(#ah)" style="isolation: isolate"/>
  <polygon points="150.79 418.31 130.69 695.76 0 538.51 150.79 418.31" opacity="0.3" fill="url(#ai)" style="isolation: isolate"/>
  <polygon points="150.79 418.31 0 538.51 0 0 150.79 418.31" opacity="0.3" fill="url(#aj)" style="isolation: isolate"/>
  <polygon points="130.69 695.76 0 1075.44 0 538.51 130.69 695.76" opacity="0.3" fill="url(#ak)" style="isolation: isolate"/>
  <polygon points="444 956 0 1075.44 130.69 695.76 444 956" opacity="0.3" fill="url(#al)" style="isolation: isolate"/>
  <polygon points="424 688 150.79 418.31 256 269.26 424 688" opacity="0.3" fill="url(#am)" style="isolation: isolate"/>
  <polygon points="680 748 444 956 424 688 680 748" opacity="0.3" fill="url(#an)" style="isolation: isolate"/>
  <polygon points="522.75 0 256 269.26 0 0 522.75 0" opacity="0.3" fill="url(#ao)" style="isolation: isolate"/>
  <polygon points="812.57 0 632 284.63 522.75 0 812.57 0" opacity="0.3" fill="url(#ap)" style="isolation: isolate"/>
  <polygon points="1044 0 1045.5 269.26 812.57 0 1044 0" opacity="0.3" fill="url(#aq)" style="isolation: isolate"/>
  <polygon points="632 284.63 872 618.94 1045.5 269.26 632 284.63" opacity="0.3" fill="url(#ar)" style="isolation: isolate"/>
  <polygon points="812.57 0 632 284.63 1045.5 269.26 812.57 0" opacity="0.3" fill="url(#as)" style="isolation: isolate"/>
</svg>
